# xmcd CD database file
#
# Track frame offsets:
#	150
#	18790
#	38450
#	72017
#	91327
#	115435
#	147907
#	177670
#	196135
#	215002
#
# Disc length: 3159 seconds
#
# Revision: 3
# Processed by: cddbd v1.5.2PL0 Copyright (c) Steve Scherf et al.
# Submitted via: CDex 1.74
#
DISCID=870c550a
DTITLE=Various Artist - Gospel - The Soul Of R&B
DYEAR=1995
DGENRE=Gospel and Religious
TTITLE0=He's Able - Kirk Franklin and The Family
TTITLE1=I'll Take You There - BeBe and CeCe Winans
TTITLE2=Whose Report Will You Believe - West Angeles Church Of God In Christ
TTITLE3=My Soul Desire - Deniece Williams
TTITLE4=Miracle - The Clark Sisters
TTITLE5=It Shall Be Done - Daryl Coley
TTITLE6=The Potter's House - Tramaine Hawkins
TTITLE7=We Have Come - The Ricky Grundy Chorale
TTITLE8=Sweepin' Through The City - Stephanie Mills
TTITLE9=I Feel Like Praising Him - Sandra Crouch
EXTD=YEAR: 1995
EXTT0=
EXTT1=
EXTT2=
EXTT3=
EXTT4=
EXTT5=
EXTT6=
EXTT7=
EXTT8=
EXTT9=
PLAYORDER=
